<?xml version="1.0" encoding="UTF-8"?>
<svg id="Camada_1" data-name="Camada 1" xmlns="http://www.w3.org/2000/svg" xmlns:xlink="http://www.w3.org/1999/xlink" viewBox="0 0 622 184">
  <defs>
    <style>
      .cls-1 {
        fill: #9f7581;
      }

      .cls-2 {
        fill: url(#Gradiente_sem_nome);
      }

      .cls-3 {
        fill: url(#Gradiente_sem_nome_2);
      }

      .cls-4 {
        fill: #fff;
      }

      .cls-5 {
        fill: #d1c8b2;
      }
    </style>
    <linearGradient id="Gradiente_sem_nome" data-name="Gradiente sem nome" x1="68.61" y1="77.9" x2="128.42" y2="12.25" gradientTransform="translate(0 186.22) scale(1 -1)" gradientUnits="userSpaceOnUse">
      <stop offset="0" stop-color="#663f21"/>
      <stop offset=".74" stop-color="#ffe8ce"/>
      <stop offset=".96" stop-color="#ffe8ce"/>
      <stop offset="1" stop-color="#cfb176"/>
    </linearGradient>
    <linearGradient id="Gradiente_sem_nome_2" data-name="Gradiente sem nome 2" x1="12.61" y1="175" x2="103.68" y2="124.78" gradientTransform="translate(0 186.22) scale(1 -1)" gradientUnits="userSpaceOnUse">
      <stop offset="0" stop-color="#663f21"/>
      <stop offset=".74" stop-color="#ffe8ce"/>
      <stop offset=".96" stop-color="#ffe8ce"/>
      <stop offset="1" stop-color="#cfb176"/>
    </linearGradient>
  </defs>
  <path class="cls-1" d="M141.27,180.7h1.01c-18.73,3.02-44.06.66-63.48.45-12.87-.13-26.24.79-39.17.06-6.29-.36-13.31-1.96-17.8-6.49,10.55,6.58,20.71,6.11,32.9,6,28.72-.28,57.73-.02,86.56-.02h-.02Z"/>
  <path class="cls-1" d="M11.82,22.17c1.04-3.3,2.29-5.61,5-7.92-1.55,2.42-2.9,4.88-4.28,7.39-.19.34-.66.43-.72.53Z"/>
  <path class="cls-5" d="M140.2,86.06c-.13.43-.3.43-.49,0-.9-2.22-5.76-10.44-8.42-9.73-1.46.39-3.69,3.59-3.79,5.09-.13,1.78,2.53,5.82,3.3,8.11v1c-2.16-5.13-6.64-8.13-1.74-13.39,2.91-3.12,4.46-1.22,6.94,1.48,2.47,2.7,2.94,4.38,4.2,7.44Z"/>
  <path class="cls-5" d="M128.6,118.43h-.49c5.95-6.14,11.49-10.57,13.01-19.49.49-2.63.42-5.36,0-7.99v-.49c-.42-.93-.42-1.59,0-2.01,4.1,15.21-3.24,20.42-12.52,30.01v-.02Z"/>
  <path class="cls-1" d="M26.41,174.72h-.49c-1.71-1.08-3.98-2.5-4.51-4.58,1.59,1.58,3.6,2.79,5,4.58Z"/>
  <path class="cls-1" d="M141.03,88.48v2.04c-.73-1.35-.73-3.02-1.25-4.58h.41c.33.98.52,1.12.84,2.54Z"/>
  <path class="cls-2" d="M167.64,141.43l-.11-16.81c.25-10.36.29-20.32-.15-24.49v-2.03c-1.35-1.95-2.37-1.71-2.79.72-.38,17.59.59,35.27.02,52.86v.49c-1.01.87-.34,2.75-.49,4-.13.42-.34,1.06-.49,1.5-.51,1.48-1.35,2.81-2.01,4-1.73,3.17-5.69,8.92-8.52,11.02-9.81,7.3-23.36,5.01-34.78,4.99-20.34-.04-40.74.53-61.1.55-10.23,0-21.55.8-30.81-3.53-.17-.21-.34-.23-.49,0-1.61-1.35-3.11-2.87-4.52-4.52-.95-.93-2.13-2.43-3-3.51-3.61-5.14-5.73-10.36-6.13-16.68-.8-12.45-.47-24.87.04-37.36.17-4.89.06-9.83-.28-14.65-.09-1.27-.89-5.69-2.47-4.29-.61.55-1.04,10.47-1.08,11.44-.46,13.58-.55,27.28-.06,40.85.11,3.13.3,6.26,1.46,9.14,1.39,7.29,5.67,15.54,12.01,19.52,8.03,6.36,18.54,6.47,28.27,6.45l29.18-.26c20.61.76,41.17.7,61.74-.17h1.01c6.43-1.04,11.08-3.95,15.52-8.52,1.08-1.1,1.18-1.4,2.01-2.51.95-1.27,1.71-1.5,2.51-3.51,2.24-2.54,4.06-6.68,4.52-10.02.06-.47-.06-1.02,0-1.5.47-4.1.87-9.14,1.02-13.24l-.02.04ZM73.71,178.39c-4.97.04-9.96.09-14.93.19,4.95-.19,9.92-.23,14.93-.19ZM166.82,144.07c0,3.55-.15,7.1-.72,10.61.21-1.75.47-5.63.72-10.61Z"/>
  <path class="cls-3" d="M167.59,80.19c-.3-14.73.97-30.57.04-45.07-.08-1.33-.3-4.08-.51-5.23-.47-2.43-1.99-5.33-3-7.51-2.66-5.71-4.25-7.68-9.02-11.51-4.99-4.02-9.1-6.41-15.8-7-15.8-1.4-35.36.11-51.63,0-6.74-.04-13.67-.49-20.51-.55-11.54-.08-29.56-1.59-39.88,2.75-2.89,1.21-7.04,4.02-8.51,6.77-.61.51-1.33.91-2.01,1.5-1.97,2.48-3.65,5.16-5.01,8-1.5,4.11-2.89,8.85-3.13,13.23-.95,16.61-.49,34.19.08,50.78-.04,1.37.32,2.22,1.06,2.54.49,1.44,1.01.95,1.5-1.5.85-1.8,1.22-3.83,1.06-6.12-.44-13.8-.61-27.63-.49-41.45.55-9.42,1.71-17.6,8.45-24.5v.49c4.35-4.02,9-6.88,14.77-8.51h103.26c3.38.23,8.26,1.42,11.26,3.01,1.88,1,3.13,2.9,5.01,3.51,1.37,2.28,3.11,3.68,4.52,6.01,1.01.82,1.97,2.07,2.52,3.22.91,1.95,2.98,9.06,2.98,11.04v45.03c0,2.88-.8,4.13,0,7.75.17.76-.34,2.58,1.18,2.45,3.76-.32,1.86-7.03,1.8-9.18v.04ZM98.4,6.94c9.78.02,19.54.06,29.3.08-9.63.4-19.42.25-29.3-.08Z"/>
  <path class="cls-1" d="M141.03,98.86v-7.92c.97,1.41.92,4.52.7,6.25-.12.94-.65,1.39-.7,1.67Z"/>
  <path class="cls-4" d="M339.7,137.97c-4.4,7.49-7.65,15.92-12.3,23.23-1.88,5.1-3.72,5.27-5.51.5-4.86-7.26-8.01-16.8-12.78-24.27-2.62-1.24-4.42-.79-4.79,2.28-1.04,9.23.8,20.38,0,29.84,0,1.53,2.6,1.55,3.68,1.28.59-.15.68-1.51.84-2.05-.4-6.84-.42-13.71-.06-20.55.87-.48,1.73.15,2.56,1.86,2.2,3.93,3.82,8.06,5.9,11.99.59,1.09,4.48,7.91,4.86,8.24,1.14.96,2.96.42,4.4.52l12.38-23.25c.11-.33.99-1.67,1.5-1.01.82,1.07-1.01,22.26.51,23.75,1.02,1.03,3.51.79,3.51-.77v-31.85c0-1.13-4.04-1.03-4.73.27Z"/>
  <path class="cls-4" d="M283.21,166.55h-23.6s-.76-.7-.76-.75v-11.69h19.83c1.03,0,1.26-3.98.76-3.98h-19.83s-.76-.7-.76-.75v-8.2h24.36c1.05,0,1.05-3.98,0-3.98h-27.63s-.76.7-.76.75v31.84s.7.75.76.75h28.37c.04-.81.21-3.98-.76-3.98l.02-.02Z"/>
  <path class="cls-4" d="M597.79,153.09c-3.34-1.01-17.43-2.96-17.92-6.81-.84-6.33,13.36-6.67,17.56-5.42,2,.59,4.83,3.26,5.77,3.11,3.67-.53,1.62-3.47-.48-4.88-7.1-4.79-27.47-3.91-26.36,7.97.29,3.09.94,2.27,2.52,3.53,6.26,4.96,13.15,3.93,19.99,6.96,4.75,2.12,5.17,5.05.63,7.86-4.39,2.71-14.32,2.71-18.36-.71-2.08-1.76-1.85-4.39-5.78-1.76-.13.71,1.11,1.66,1.51,2.25.15.21.08.84.48,1.28.63.71,1.45.8,2.04,1.24,6.7,4.98,17.64,4.96,24.19-.5.71-.59.92-.67,1.51-1.51,4.43-6.27-1.62-10.89-7.27-12.61v-.02Z"/>
  <path class="cls-4" d="M226.28,152.89c-3.42-1.02-16.86-2.55-17.93-6.24-1.61-5.49,10.07-7,13.72-6.58,3.92.45,5.45,2.44,8.37,3.44,3.06,1.04,3.9-1.38,1.8-3.54-.76-.79-1.2-.62-1.8-.97-6.37-3.67-15.98-3.48-22.19.49-.48.3-1.07.17-1.82.97-.55.59-.48,1.15-.71,1.53-.48.78-1.19,1.27-1.4,2.36-1.99,9.76,16.76,10.27,22.57,12.88,5.56,2.48,5.33,5.85.04,8.51-4.76,2.4-13.38,1.74-17.64-1.57-.78-.61-1.64-2.14-1.91-2.21-4.2-1.15-4.17,1.36-1.89,3.97,5.39,6.13,19.02,6.58,25.4,1.74,7.61-5.79,3.04-12.51-4.64-14.8h.02Z"/>
  <path class="cls-4" d="M422.5,137.74c-.23-1.02-2.78-1.13-3.35-.75-1.21.77-.25,16.49-.6,19.35-1.15,8.95-10.15,12.03-18.05,10.78-3.5-.56-6.64-4.98-8.49-.73-.7,1.63,4.01,3.56,5.29,3.97,9.47,2.97,20.6-.54,24.37-10.36,2.29-6,.25-15.71.85-22.26h-.02Z"/>
  <path class="cls-4" d="M372.81,136.91c-1.46-.4-3.47.21-3.8,1.8v32.03c0,.34,3.74.29,4.07-.04.18-.17.6-4.07.6-4.74.14-7.87.72-18.99-.12-26.68-.06-.48-.35-2.24-.76-2.35v-.02Z"/>
  <path class="cls-4" d="M502.3,137.33c-.36-.32-2.52.1-3.25-.06v33.58c3.43.27,3.5.32,3.76-3.26.55-7.5.52-19.54.02-27.07-.04-.55-.37-3.04-.53-3.19Z"/>
  <path class="cls-5" d="M384.16,90.79c1.35-21.96-1.75-45.96,0-67.67.15-1.97,1.54-5.39,1.52-6.53,0-.46-.46-1.21-.74-1.21h-10.02c-1.63,0,.21,7.5.27,8.75,1.2,23.33-.44,47.25-.65,70.54-.04.74-2.28,4.38-.63,4.38h12.02c.15,0,.68-.44.49-.99-.74-2.22-2.39-4.61-2.28-7.27h.02Z"/>
  <path class="cls-5" d="M361.66,15.69c-.32-1.42-12.81-1.88-13.5-.76-.57.93.27,1.84.44,2.45.17.53.23.97.49,1.5,1.01,9.19.3,18.53.49,27.79-.28,1.63-1.54,1.9-3,1.77-.17-.08-.61-.09-1.14-.08-3.15-.17-6.59.04-9.87.08-6.11.08-5.32-.42-11.52,0-.89.06-5.14,0-13.69-.15-.55,0-1.76-.04-2.47-.89-.78-.93-.53-2.33-.38-2.98.19-9.68-.91-19.63,1.46-29-.4,0-1.03-.55-1.2-.55h-9.02c-2.89,0-1.29,4.42-1.25,5.5.93,23.75-.7,48.08,0,71.9.3,1.37-2.87,7.25-.27,7.25h11.03c2.54,0,.27-3.23,0-4.5-1.86-8.31-1.37-31.62-.76-40.87.06-.89.28-3.17.51-3.89.21-.66.91-.27,1.01-.34h16.04c3.34,0,6.68-.02,10.02,0,1.82,0,13.67-.28,14.09.28.3.8.4,1.59.47,2.45,0,.15.02.32.04.49-.06,2.92-.11,5.85-.1,8.75,0,3.32.34,7.69.59,12.28,0,9-.3,17.84-1.2,20.92-.4,1.37-2.05,2.98-1.4,4.01.57.91,2.33.68,6.07.4,2.11-.17,4.82-.36,8.01-.51.02-1.25-.63-2.33-1.01-3.51.06-1.29-.44-2.47-.51-3.74-.09-1.54-.17-3.09-.23-4.65,0,.28,0,.55-.04.84v-2.24c0,.47.02.95.04,1.42.25-6.59.13-13.36-.09-20.2,0,.7-.02,1.4-.04,2.09v-3.28c0,.4.02.8.04,1.2.28-14.16.97-28.47.3-42.33-.29-2.18,1.94-7.29,1.56-8.92l-.04.04ZM298.19,29.87v2.41c-.06-3.8-.11-7.59-.19-11.41.06,3,.13,6,.17,9h.02Z"/>
  <path class="cls-5" d="M449.83,93.06v1.23c-.19,2.77-2.13,3.68.47,4.75,5.32.59,10.52.55,15.64-.09l-.11-.4c1.99-.23-.42-2.49-1.5-3v-.49c-2.41-2.77-3.89-5.62-6.02-8.52-.25-1.5-.83-3-2.01-4.01.04.08,0,.17,0,.25v-.25c-2.33-5.64-4.42-11.43-6.74-17.08-.32-.76.06-1.75-1.27-1.46-.09-.27.1-.74,0-1.01-1.46-4.46-2.89-8.16-4.52-12.53-3.47-9.32-6.93-19.44-10.78-28.55-.66-1.58-2.22-6.07-3.74-6.53h-.32c.11,0,.23-.02.32,0-1.25-.78-7.52-1.01-7.95.32-.87,2.6,2.16,6.4,2.45,8.94.3,2.6-.61,4.35-1.01,6.78,1.86-1.04,1.42-4.69,3.49-1.5.19.32.32.66.49,1.01.11.21.42.34.49.49,2.89,9.87,8.85,18.98,11.03,29.06.3,1.37,1.61,4.97.17,5.43-5.45.23-9.89.44-12.96.59-8.41.44-12.51.72-13.5-1.25-.17-.36-.29-.85.74-4.27.89-2.96,1.8-5.35,2.51-7,.32-.8.63-2.01,1.01-3,.09-.27.34-.59.49-1.01,1.04-2.83,1.88-5.71,3-8.52.55-1.39.97-2.79,2.01-5.5,1.2-3.17,2.28-5.73,3.06-7.5-.63.82-1.23,1.65-1.86,2.47-.57,1.31-1.14,2.66-1.69,4.02-1.23,3.02-2.37,5.98-3.44,8.86-.4.97-.97,2.39-1.58,4.16-.25.7-.46,1.5-1.01,3-.72,2.03-1.33,3.97-2.01,6.02-.3.93-1.06,2.09-1.5,3.51-.47,1.52-.66,2.41-1.5,5.01-.19.61-.34,1.04-.49,1.5-1.39,4.04-2.89,7.71-4.88,13-.25.65-.65,1.71-1.12,3.02-.72,2.03-1.88,4.57-3.72,7.21-1.01,1.42-2.03,2.62-3,3.63-2.3,2.7-3.23,4.33-2.77,4.94.13.17.38.27.74.27h11.52c1.97,0-.95-3.49-1.25-4.01-.36-.99-.74-2.24-.91-3.74-.3-2.62.13-4.8.53-6.19,1.8-5.54,3.59-11.09,5.39-16.63.32-.23.55-.63.49-1.01h1.01c9.51,0,19.08-.04,28.55,0,.28.55.68,1.35,1.16,2.32,2.85,5.81,4.65,10.19,5.16,11.43,0,0,3.21,7.84,3.23,11.84ZM445.79,77.48c1.01,1.96,1.8,3.93,2.45,5.88-.8-2.01-1.67-4.01-2.45-5.88ZM424.44,24.03c-.06-.21-.11-.44-.19-.65.06.15.09.3.15.47,0,.06.02.11.04.19v-.02Z"/>
  <path class="cls-5" d="M538.46,99.02l-1.5-1.99c.27-.19.27-.34,0-.49-.7-.4-1.33-1.03-2.01-1.5-3.38-3.64-6.74-7.38-9.51-11.52-2.07-3.11-4.69-7.69-6.51-11.03-.64-1.16-1.42-2.37-2.01-3.51-.74-1.46-1.9-3.63-2.51-5.01-.63-1.44-1.01-3.68-1.97-5.2.19-.82,4.75-2.2,5.98-2.81.97-.47,1.67-1.02,2.51-1.5,2.16-1.23,2.45-1.03,4.52-3,7.06-4.46,8.26-11.77,6.02-19.53-.19-.63-.23-.85-.49-1.5-.72-1.71-1.59-3.15-2.6-4.4-3.15-3.89-10.17-6.89-11.92-7.61-1.67-.7-3.07-1.2-4.01-1.5-1.46-.53-3.55-1.16-6.11-1.58-1.58-.25-2.68-.32-4.65-.44-4.82-.28-8.62,0-10.27,0-1.97,0-3.95.49-5.51.49-2.85.02-6.53-.89-9.79-.53-3.17.36-.91,2.64-.72,4.78.34,3.8-.66,8.14.49,11.77v48.1c-.11,6.13.85,13.52-2.51,18.77.32,1.46,11.71,1.71,13.52.49,1.04-.7-.49-2.6-.76-3.74-.4-1.75-.63-3.23-.74-5.01-.61-9.21.29-19.06.51-28.28.34-1.82,1.27-1.42,2.49-1.77h2.51c3.7,0,7.35.15,11.03.49.64.59.93,2.11,2.01,2.51.91,3.13,3.08,5.6,4.92,8.16.19.28.4.57.61.85,1.78,3.23,3.02,4.99,5.01,8.01.08.17.17.34.25.51.91,2.03,1.5,4.42,3.26,6,.76,2.41,1.94,3.93,2.51,6.51.38,1.77.78,3.17.47,5.18.38,1.61,15.17.49,17.56.84l-.06-.02ZM485.61,57.99c-.06-3.32-.09-6.66-.13-10.02-.08-10.59.06-20.98.36-31.11.91-.19,1.86-.36,2.85-.53.47-.08.95-.15,1.4-.21.59-.09,1.18-.19,1.75-.27,2.51.17,5.01.34,7.52.49.74-.04,1.5-.06,2.3-.06s1.5.02,2.22.06c1.5.34,3,.66,4.52,1.01,1.08.42,2.35.99,3.7,1.77,1.18.7,2.18,1.42,3,2.11,1.12.87,2.3,1.94,3.51,3.15,1.54,1.56,2.81,3.09,3.82,4.5,2.32,6.87,1.21,16.59-3,22.55-.04.04-.06.06-.08.09-.47.65-.95,1.27-1.42,1.92-.17.17-.34.34-.49.49-.84.49-1.67,1.01-2.51,1.5-1.5.66-3,1.33-4.52,2.01-1.67.34-3.34.66-5.01,1.01-1.67.17-3.34.34-5.01.49-2.24-.15-4.46-.3-6.72-.46-2.7-.17-5.39-.34-8.07-.51l.02.02ZM522.55,98.32c1.39.17,2.79.3,4.2.42-1.8.04-3.34-.06-4.2-.42Z"/>
  <path class="cls-5" d="M281.46,80.99c-.21.27-.29.74-.49,1.01-1.1,1.4-2.39,3.34-3.51,4.52-1.03,1.06-4.8,4.21-6.02,5.01-2.07,1.35-6.53,3.3-8.92,3.85-2.85.66-5.45.36-8.12,1.16-7.5,0-13.5-.89-20.54-3.51-2.51-1.94-5.32-3.49-7.74-5.52-1.59-1.31-5.11-4.48-6.28-6-.7-.89-1.9-2.94-2.51-4.01-2.81-4.94-4.46-10.61-6.02-16.04v.49-.49c-1.04-9.81-1.39-18.17,2.51-27.56.38-.91,1.75-2.3,2.01-3.51.68-1.02,1.92-2.73,3.76-4.54,10.8-10.52,26.84-8.75,28.97-8.48,1.99.25,4.61.74,7.59,1.77,2.35,1.14,4.1,2.33,5.28,3.25,4.25,3.25,7.08,7.36,8.01,8.52.44.51.85,1.21,1.5,2.01,3.15,3.76,4.61,7.23,5.5-.49,3.04-8.18,1.88-9.21-5.01-12.53-6.47-3.13-12.72-5.26-20.04-5.5-2.73-1.18-6.19-.3-9.02,0-6.34.68-9.26,1.33-15.03,4.01-.82.38-1.2.57-2.01,1.01-.93.51-1.61.93-2.51,1.5-.3.19-.7.3-1.01.49-1.27.87-2.32,2.05-3.51,3-.48.38-.72.76-1.01,1.01-.49.42-1.1.66-2.01,1.5-.78.72-1.29,1.29-2.01,2.01-.7.72-1.25,1.1-2.01,2.01-2.05,2.41-2.98,3.64-4.52,6.51-2.71,5.07-4.21,9.26-5.01,15.03.04.44.04.87.04,1.31,0-.44-.04-.87-.04-1.31-1.97,14.2,5.11,31.98,18.03,39.08.3.17.68.36,1.01.49.34.99,1.33,1.06,2.01,1.5,10.57,7.06,22.36,6.7,25.8,6.51,3.11-.17,5.56-.65,6.8-.89,2.32-.46,6.15-1.23,10.63-3.28,1.69-.78,3.74-1.86,5.87-3.32,2.92-2.01,3.25-2.7,5.5-5.01,1.75-1.78,2.47-2.58,4.01-4.52.38-.47,1.06-.87,1.5-1.5.93-1.33,2.24-2.87,2.51-4.5-.68-.7-3.55,3.42-4.01,4.01l.1-.04ZM274.82,36.37s.11,0,.15-.04v.08s-.1,0-.15-.04ZM276.47,31.39v.46-.46Z"/>
  <path class="cls-5" d="M612.11,95.53c-1.01-1.73-2.73-3.28-3.51-4.52-5.22-8.22-8.58-18-12.02-27.05-1.2-3.17-2.26-6.36-3.51-9.51-.7-1.78-1.16-3.19-2.01-5.01-.46-.99-.63-1.78-.66-1.94-.66-1.99-3.53-9.26-11.29-27.98-.04-.59-.25-1.12-.57-1.59-.23-.76-.47-1.48-1.06-2.05-.36-.34-.91-.97-1.4-.8-.44.15-.55.84-.57.97-3.63,10.46-5.47,15.09-6.47,17.35,0,0-1.8,4.04-3.51,9.02-.19.55-.08.34-.49,1.5-1.2,3.34-2.35,6.66-3.51,10.02-.63,1.84-1.4,3.64-2.01,5.5-.46,1.44-.68,2.05-2.01,6.02-.93,2.79-1.39,4.2-1.5,4.52-1.94,5.54-1.97,5.18-3,8.01-.53,1.48-.99,3.15-1.5,4.52-.15.42-.68,1.2-1.01,2.01-.38.95-.65,2.26-1.01,3-.13.27-.23.47-.34.7l-.15.3c-.19.36-1.25,1.82-2.81,3.74-2.03,1.96-4.08,3.89-6.11,5.85-.36.68,1.02,1.52,1.65.95,3.47.47,7.57.42,11.03,0,.44.04,1.02.04,1.33-.32.87-.99-1.18-3.51-2.09-6.7-.49-1.73-.8-4.2,0-7.52.95-1.88,1.33-4.02,2.01-6.02.84-2.45,1.59-5.13,2.51-7.52.53-1.4,1.14-2.32,2.01-3.51,6.57.8,14.58-.61,21.32.02,2.62-.93,4.71-.04,7.25-.02h1.5c3.32,9.98,11.35,20.75,7.52,31.57,5.03.15,8.96.76,14.03,0,.82-.11,1.82.19,2.68-.08,1.82-.59-.06-2.37-.66-3.44h-.02ZM584.57,65.77c-3.85.13-7.88.19-12.05.15-3.53-.04-6.97-.15-10.27-.34-2.13.55-2.68,0-2.83-.17-.36-.46-.11-1.1.91-3.91,1.08-2.96,1.63-4.44,1.59-4.35.36-.93.85-2.26,1.46-3.83.55-1.58,1.1-3.19,1.61-4.88.34-1.06.65-2.13.95-3.15.51-1.78,1.04-3.57,1.56-5.35,1.37-3.4,2.73-6.78,4.08-10.17.17-.04.36-.06.53-.09,3.47,7.27,6.95,14.52,10.42,21.79,1.01,2.33,2.01,4.67,3,7,.76,2.32,1.54,4.63,2.3,6.95-1.1.11-2.18.25-3.28.36h.02Z"/>
  <path class="cls-4" d="M457.22,136.63c-8.62,1.34-15.35,10.58-14.34,19.18,2.21,18.9,29.85,21.1,35.25,3.81,4.29-13.75-7.23-25.13-20.91-22.99ZM467.92,165.78c-5.26,1.7-10.62,1.45-15.59-1.01-2.31-1.86-3.3-3.39-4.54-6.06-.52-2.85-.99-6.83,0-9.58,2.88-8.09,12.31-9.97,19.62-7.57.32.11.67.36,1.01.5l4.02,3.54c4.73,7.69,3.22,15.63-4.54,20.2h.02Z"/>
  <path class="cls-4" d="M557.39,166.25c-5.51-9.34-11.01-18.68-16.41-28.09-1.36-.9-2.94,3.37-3.49,4.31-1,.44-1.36,1.51-1.49,2.53-3.55,5.96-6.94,12.06-10.96,17.72-.45.65-1.04,1.02-1,2.03-1.15,1.82-2.41,3.82-2.49,6.08,6.13,1.61,5.51-8,10.69-8.61,5.47-.65,12.22.42,17.84.1,1.09.35,3.83,5.58,4.83,7,.81,1.13.34,1.94,2.75,2.05,3.81.19,1.87-2.3.53-4.03-.23-.35-.49-.71-.77-1.07l-.04-.02ZM547.19,158.66h-13.45c-.3,0-1.06-1.04-.55-1.55,1.94-3.34,3.96-6.67,5.77-10.09,1.81-1.78,2.26-.6,3.49,1.02.62.82,5.09,8.46,5.26,9.07.19.67,0,1.55-.55,1.55h.02ZM559.19,170.82s.07-.17.09-.29l.11.27s-.13,0-.21.02Z"/>
  <path class="cls-5" d="M141.2,91.01c.34-.19.34-.36,0-.49-.17-1.75-.68-3.25-1.5-4.52-.32-2.7-5.66-10.95-8.62-10.17-6.57,3.74-3.55,8.94-.4,13.69v1.01c.19,3.78.83,5.32-.47,9.3-1.58,4.78-13.36,15.49-17.56,19.76-4.29,4.37-8.71,8.66-13.02,13.02-1.96,1.97-3.63,4.18-5.5,6.02-.65.63-1.73,1.37-2.51,2.01-1.01.84-2.07,1.59-3,2.51-2.62-.36-9.72-8.69-12.02-11.03-1.01-1.01-2.01-2.01-3-3-1.67-1.67-3.34-3.34-5.01-5.01-2.62-2.62-5.14-5.37-7.74-8.03-6.21-6.32-15.01-12.32-15.3-22.04l3-10.52c.28-.8.44-1.56.49-2.26.04.59,0,1.18-.21,1.69,1.06-2.07,1.61-2.52-.28-5.2-3.04-4.29-5.24-2.62-7.33.4-.42.51-.82,1.14-1.2,1.86-8.28,9.6-5.81,24.2,2.24,33.09,10.52,11.62,23.63,23.77,34.83,35.04,3.02,3.04,5.85,6.91,9.51,9.02,1.42.82,1.08,1.77,3.49.23,5.96-5.32,11.41-11.1,17.06-16.76,2.68-2.68,4.97-5.43,7.52-8.01,4.63-4.71,9.41-9.26,14.03-14.03h-.49c2.24-1.94,4.46-4.1,6.44-6.34,3.15-3.61,7.08-8.33,6.59-13.19.49-2.62.44-5.39,0-8.01l-.04-.02ZM76.57,132.6c.19.19.38.4.57.61-.19-.21-.38-.4-.57-.61ZM84.14,154.68c.82.66,1.63,1.33,2.45,1.95-.82-.4-1.63-1.1-2.45-1.95Z"/>
  <path class="cls-5" d="M47.02,58.46c.97,10.59,14.29,20.82,21.54,28.06,3.36,3.36,6.47,7.08,10,10.29.63.57,1.03,1.25,2.01,1.23.97,1.01,2.01,2.54,3,3.51,3.34,5.39,4.84,5.6,9.04,1.25.3-.3.36-.83.42-1.1.02-.04.04-.1.06-.15,9.57-9.76,25.17-22.51,32.55-33.07,6.76-9.68,6.95-21.39,0-31.05-7.48-10.42-20.22-14.48-32.42-9.62-3.36,1.35-3.95,3.68-8.16,1.1-.38-.89-1.18-.99-1.97-1.27-11.2-3.97-21.96-1.44-29.57,7.29-.66.76-1.18.95-1.5,1.25-.47.44-4.48,4.46-5.2,14.33-.15,1.94-.21,4.69.19,7.97l.02-.02ZM62.69,55.88c-2.14,2.33-3.21,2.11-3.51,2.01-1.77-.61-1.58-5.39-1.5-7.21.09-2.22.47-4.02.8-5.2.3-.87.85-2.11,1.86-3.36.59-.72,1.18-1.27,1.71-1.69,1.31-.84,4.76-2.81,9.53-2.64,3.53.13,6.15,1.37,7.5,2.13-3,3.17-6.02,6.34-9.02,9.51-2.45,2.14-4.92,4.29-7.36,6.43v.02ZM81.58,85c-1.21-1.21-1.4-1.4-3.28-3.25-1.1-1.08-2.2-2.16-3.23-3.26-1.75-1.88-4.06-4.42-5.77-6.51-1.54-1.88-2.16-2.92-2.24-3.8-.15-1.67,1.2-2.73,6.49-7.73,2.73-2.56,4.08-3.83,4.76-4.54,4.1-4.25,6.15-6.38,6.26-6.49,2.52-2.35,3.23-3.99,6.51-1.5,1.16.87,4.21,4.2,5.5,5.5,1.86,1.9,4.1,4.44,6.02,6.51,1.2,1.29,2.35,2.68,3.51,4.01,1.04,1.2,4.25,3.95,3.64,5.35-5.03,4.95-8.48,8.79-10.76,11.45-1.12,1.31-2.9,3-6.45,6.36-2.9,2.75-3.78,3.44-4.94,3.36-1.2-.08-1.44-.89-6.04-5.49v.02ZM115.16,41.74c.74.82,1.2,1.65,1.5,2.3,2.51,3.36,4.16,19.36-2.75,11.2l-7.95-7.84c-.19-.28-.36-.55-.55-.84-2.18-2.58-4.44-5.14-6.8-7.69,1.52-.53,4.08-1.21,7.29-.99,2.35.17,4.23.78,5.52,1.31.87.34,2.37,1.06,3.7,2.56l.04-.02ZM84.71,29s-.09-.06-.13-.09c.04,0,.08.06.13.09Z"/>
  <path class="cls-5" d="M48.8,82.93c-.09.17-.19.36-.28.57.11-.17.21-.36.28-.57Z"/>
</svg>